<svg width="23" height="12" viewBox="0 0 23 12" fill="none" xmlns="http://www.w3.org/2000/svg">
<path d="M21.6545 10.4727C21.9273 10.8545 21.8727 11.3455 21.5455 11.6182C21.1636 11.8909 20.6182 11.8364 20.3455 11.5091L18.4364 9.05455L16.5818 11.4545C16.3091 11.8364 15.7636 11.8364 15.3818 11.5636C15 11.2909 14.9455 10.8 15.2182 10.4182L17.4 7.58182L15.2182 4.74545C14.9455 4.36364 15.0545 3.81818 15.3818 3.54545C15.7636 3.27273 16.3091 3.38182 16.5818 3.70909L18.4364 6.16364L20.3455 3.81818C20.6182 3.43636 21.1091 3.38182 21.5455 3.65455C21.9273 3.92727 21.9273 4.47273 21.6545 4.85455L19.5273 7.63636L21.6545 10.4727V10.4727ZM11.7273 10.1455C10.3091 10.1455 9.16364 9.05455 9.16364 7.63636C9.16364 6.27273 10.3091 5.12727 11.7273 5.12727C13.1455 5.12727 14.2909 6.27273 14.2909 7.63636C14.2364 9.05455 13.0909 10.1455 11.7273 10.1455ZM4.2 10.1455C2.78182 10.1455 1.63636 9.05455 1.63636 7.63636C1.63636 6.27273 2.78182 5.12727 4.2 5.12727C5.61818 5.12727 6.76364 6.27273 6.76364 7.63636C6.76364 9.05455 5.61818 10.1455 4.2 10.1455V10.1455ZM11.7273 3.49091C10.1455 3.49091 8.72727 4.36364 8.01818 5.67273C7.30909 4.36364 5.89091 3.49091 4.25455 3.49091C3.27273 3.49091 2.4 3.81818 1.69091 4.30909V0.818182C1.69091 0.381818 1.30909 0 0.872727 0C0.381818 0 0 0.381818 0 0.818182V7.69091C0.0545455 9.98182 1.90909 11.7818 4.2 11.7818C5.83636 11.7818 7.25455 10.8545 7.96364 9.54545C8.67273 10.8545 10.0909 11.7818 11.6727 11.7818C14.0182 11.7818 15.9273 9.92727 15.9273 7.58182C15.9818 5.34545 14.0727 3.49091 11.7273 3.49091V3.49091Z" fill="#0071F7"/>
</svg>